<?xml version="1.0" standalone="no"?>
<!DOCTYPE svg PUBLIC "-//W3C//DTD SVG 20010904//EN"
 "http://www.w3.org/TR/2001/REC-SVG-20010904/DTD/svg10.dtd">
<svg version="1.0" xmlns="http://www.w3.org/2000/svg"
 width="500.000000pt" height="500.000000pt" viewBox="0 0 500.000000 500.000000"
 preserveAspectRatio="xMidYMid meet">
<metadata>
Created by potrace 1.11, written by Peter Selinger 2001-2013
</metadata>
<g transform="translate(0.000000,500.000000) scale(0.100000,-0.100000)"
fill="#000000" stroke="none">
<path d="M0 2500 l0 -2500 2500 0 2500 0 0 2500 0 2500 -2500 0 -2500 0 0
-2500z m4190 1690 l0 -160 165 0 165 0 0 -65 0 -65 -165 0 -165 0 0 -160 0
-160 -75 0 -75 0 0 160 0 160 -160 0 -160 0 0 65 0 65 160 0 160 0 0 160 0
160 75 0 75 0 0 -160z m150 -2204 c25 -9 53 -23 64 -31 17 -13 17 -16 1 -64
-9 -28 -20 -53 -24 -56 -4 -2 -32 5 -62 16 -66 26 -189 35 -246 20 -85 -23
-133 -86 -133 -173 0 -97 44 -141 222 -219 129 -56 205 -105 244 -156 122
-161 62 -411 -120 -497 -111 -52 -292 -60 -426 -17 -99 31 -105 38 -91 97 19
78 22 81 76 55 131 -61 286 -68 371 -15 116 71 127 231 22 319 -18 16 -62 41
-98 58 -189 86 -213 99 -265 148 -64 60 -95 131 -95 213 0 146 87 257 238 307
71 24 251 21 322 -5z m-3520 -591 l0 -595 -75 0 -75 0 0 595 0 595 75 0 75 0
0 -595z m520 65 l0 -530 255 0 255 0 0 -65 0 -65 -330 0 -330 0 0 595 0 595
75 0 75 0 0 -530z m930 -65 l0 -595 -75 0 -75 0 0 595 0 595 75 0 75 0 0 -595z
m1065 13 c109 -321 200 -589 203 -595 3 -10 -17 -13 -80 -13 l-83 0 -64 185
-64 185 -207 0 -208 0 -62 -185 -62 -185 -79 0 c-43 0 -79 3 -79 6 0 5 375
1117 395 1172 3 8 32 12 98 12 l94 0 198 -582z"/>
<path d="M3016 1768 c-10 -38 -49 -162 -86 -274 l-69 -204 175 0 c96 0 174 3
174 7 0 3 -33 108 -74 232 -41 124 -77 243 -81 264 -4 20 -10 39 -14 41 -4 3
-15 -27 -25 -66z"/>
</g>
</svg>
